HIERARCHY
ROOT Root
{
  OFFSET 0.0 0.0 0.0
  CHANNELS 6 Xposition Yposition Zposition Zrotation Yrotation Xrotation
  JOINT Hips
  {
    OFFSET 0.0 100.0 0.0
    CHANNELS 6 Xposition Yposition Zposition Zrotation Yrotation Xrotation
    JOINT Spine1
    {
      OFFSET -0.013727 5.003763 -0.053727
      CHANNELS 3 Zrotation Yrotation Xrotation
      JOINT Spine2
      {
        OFFSET -0.0 7.125301 -0.029825
        CHANNELS 3 Zrotation Yrotation Xrotation
        JOINT Chest
        {
          OFFSET -1e-06 7.550063 -0.815971
          CHANNELS 3 Zrotation Yrotation Xrotation
          JOINT Neck1
          {
            OFFSET -0.181677 26.311295 -0.553348
            CHANNELS 3 Zrotation Yrotation Xrotation
            JOINT Neck2
            {
              OFFSET -3e-06 7.709397 2.302585
              CHANNELS 3 Zrotation Yrotation Xrotation
              JOINT Head
              {
                OFFSET -5e-06 6.128916 1.953709
                CHANNELS 3 Zrotation Yrotation Xrotation
                JOINT HeadEnd
                {
                  OFFSET 0.003598 16.065403 -1.835379
                  CHANNELS 3 Zrotation Yrotation Xrotation
                }
                JOINT Jaw
                {
                  OFFSET 0.002637 0.475592 3.094941
                  CHANNELS 3 Zrotation Yrotation Xrotation
                }
                JOINT LeftEye
                {
                  OFFSET 3.206381 5.380205 7.586883
                  CHANNELS 3 Zrotation Yrotation Xrotation
                }
                JOINT RightEye
                {
                  OFFSET -3.22244 5.361869 7.558234
                  CHANNELS 3 Zrotation Yrotation Xrotation
                }
              }
            }
          }
          JOINT LeftShoulder
          {
            OFFSET 1.621652 23.237164 5.113413
            CHANNELS 3 Zrotation Yrotation Xrotation
            JOINT LeftArm
            {
              OFFSET 14.919846 2e-06 -5.502326
              CHANNELS 3 Zrotation Yrotation Xrotation
              JOINT LeftForeArm
              {
                OFFSET 28.739307 0.0 -0.002588
                CHANNELS 3 Zrotation Yrotation Xrotation
                JOINT LeftHand
                {
                  OFFSET 27.093981 -1e-06 0.002609
                  CHANNELS 3 Zrotation Yrotation Xrotation
                  JOINT LeftHandThumb1
                  {
                    OFFSET 2.276482 -1.392045 3.191413
                    CHANNELS 3 Zrotation Yrotation Xrotation
                    JOINT LeftHandThumb2
                    {
                      OFFSET 4.012836 -1.828127 1.641654
                      CHANNELS 3 Zrotation Yrotation Xrotation
                      JOINT LeftHandThumb3
                      {
                        OFFSET 2.798515 0.0 -3e-06
                        CHANNELS 3 Zrotation Yrotation Xrotation
                        JOINT LeftHandThumbEnd
                        {
                          OFFSET 3.180793 -4e-06 4e-06
                          CHANNELS 3 Zrotation Yrotation Xrotation
                        }
                      }
                    }
                  }
                  JOINT LeftHandIndex1
                  {
                    OFFSET 3.247555 -0.531998 2.296169
                    CHANNELS 3 Zrotation Yrotation Xrotation
                    JOINT LeftHandIndex2
                    {
                      OFFSET 6.364578 0.01206 0.1786
                      CHANNELS 3 Zrotation Yrotation Xrotation
                      JOINT LeftHandIndex3
                      {
                        OFFSET 3.662364 0.0 0.0
                        CHANNELS 3 Zrotation Yrotation Xrotation
                        JOINT LeftHandIndex4
                        {
                          OFFSET 2.329242 4e-06 4e-06
                          CHANNELS 3 Zrotation Yrotation Xrotation
                          JOINT LeftHandIndexEnd
                          {
                            OFFSET 2.759615 -0.180537 -0.113024
                            CHANNELS 3 Zrotation Yrotation Xrotation
                          }
                        }
                      }
                    }
                  }
                  JOINT LeftHandMiddle1
                  {
                    OFFSET 3.163495 0.240981 1.000332
                    CHANNELS 3 Zrotation Yrotation Xrotation
                    JOINT LeftHandMiddle2
                    {
                      OFFSET 6.19078 -0.259278 -1.002548
                      CHANNELS 3 Zrotation Yrotation Xrotation
                      JOINT LeftHandMiddle3
                      {
                        OFFSET 4.35652 -4e-06 -1e-06
                        CHANNELS 3 Zrotation Yrotation Xrotation
                        JOINT LeftHandMiddle4
                        {
                          OFFSET 2.996877 -8e-06 0.0
                          CHANNELS 3 Zrotation Yrotation Xrotation
                          JOINT LeftHandMiddleEnd
                          {
                            OFFSET 2.304287 -0.294569 -0.031741
                            CHANNELS 3 Zrotation Yrotation Xrotation
                          }
                        }
                      }
                    }
                  }
                  JOINT LeftHandRing1
                  {
                    OFFSET 2.882643 -0.053652 -0.322543
                    CHANNELS 3 Zrotation Yrotation Xrotation
                    JOINT LeftHandRing2
                    {
                      OFFSET 5.854541 -0.486202 -1.373841
                      CHANNELS 3 Zrotation Yrotation Xrotation
                      JOINT LeftHandRing3
                      {
                        OFFSET 4.350578 0.0 3e-06
                        CHANNELS 3 Zrotation Yrotation Xrotation
                        JOINT LeftHandRing4
                        {
                          OFFSET 2.651321 7e-06 2e-06
                          CHANNELS 3 Zrotation Yrotation Xrotation
                          JOINT LeftHandRingEnd
                          {
                            OFFSET 1.936105 0.077687 -7.1e-05
                            CHANNELS 3 Zrotation Yrotation Xrotation
                          }
                        }
                      }
                    }
                  }
                  JOINT LeftHandPinky1
                  {
                    OFFSET 2.8655 -0.310005 -1.600378
                    CHANNELS 3 Zrotation Yrotation Xrotation
                    JOINT LeftHandPinky2
                    {
                      OFFSET 5.087849 -1.331141 -1.77123
                      CHANNELS 3 Zrotation Yrotation Xrotation
                      JOINT LeftHandPinky3
                      {
                        OFFSET 3.070974 4e-06 0.0
                        CHANNELS 3 Zrotation Yrotation Xrotation
                        JOINT LeftHandPinky4
                        {
                          OFFSET 1.549672 0.0 1e-06
                          CHANNELS 3 Zrotation Yrotation Xrotation
                          JOINT LeftHandPinkyEnd
                          {
                            OFFSET 1.944893 -0.157802 0.057219
                            CHANNELS 3 Zrotation Yrotation Xrotation
                          }
                        }
                      }
                    }
                  }
                }
              }
            }
          }
          JOINT RightShoulder
          {
            OFFSET -1.380118 23.180309 5.214158
            CHANNELS 3 Zrotation Yrotation Xrotation
            JOINT RightArm
            {
              OFFSET -15.037196 1.2e-05 -5.545604
              CHANNELS 3 Zrotation Yrotation Xrotation
              JOINT RightForeArm
              {
                OFFSET -28.736639 2e-06 -0.002597
                CHANNELS 3 Zrotation Yrotation Xrotation
                JOINT RightHand
                {
                  OFFSET -27.133619 -0.0 0.002613
                  CHANNELS 3 Zrotation Yrotation Xrotation
                  JOINT RightHandThumb1
                  {
                    OFFSET -2.274032 -1.383988 3.163127
                    CHANNELS 3 Zrotation Yrotation Xrotation
                    JOINT RightHandThumb2
                    {
                      OFFSET -4.011429 -1.827466 1.640914
                      CHANNELS 3 Zrotation Yrotation Xrotation
                      JOINT RightHandThumb3
                      {
                        OFFSET -2.794935 -4e-06 -3e-06
                        CHANNELS 3 Zrotation Yrotation Xrotation
                        JOINT RightHandThumbEnd
                        {
                          OFFSET -3.183852 4e-06 1e-06
                          CHANNELS 3 Zrotation Yrotation Xrotation
                        }
                      }
                    }
                  }
                  JOINT RightHandIndex1
                  {
                    OFFSET -3.253266 -0.520057 2.282866
                    CHANNELS 3 Zrotation Yrotation Xrotation
                    JOINT RightHandIndex2
                    {
                      OFFSET -6.341917 0.012471 0.178266
                      CHANNELS 3 Zrotation Yrotation Xrotation
                      JOINT RightHandIndex3
                      {
                        OFFSET -3.654871 -8e-06 -0.0
                        CHANNELS 3 Zrotation Yrotation Xrotation
                        JOINT RightHandIndex4
                        {
                          OFFSET -2.327586 0.0 1e-06
                          CHANNELS 3 Zrotation Yrotation Xrotation
                          JOINT RightHandIndexEnd
                          {
                            OFFSET -2.76179 -0.180656 -0.113078
                            CHANNELS 3 Zrotation Yrotation Xrotation
                          }
                        }
                      }
                    }
                  }
                  JOINT RightHandMiddle1
                  {
                    OFFSET -3.168106 0.246593 1.00103
                    CHANNELS 3 Zrotation Yrotation Xrotation
                    JOINT RightHandMiddle2
                    {
                      OFFSET -6.180828 -0.258836 -1.000895
                      CHANNELS 3 Zrotation Yrotation Xrotation
                      JOINT RightHandMiddle3
                      {
                        OFFSET -4.348901 0.0 -0.0
                        CHANNELS 3 Zrotation Yrotation Xrotation
                        JOINT RightHandMiddle4
                        {
                          OFFSET -3.00024 -4e-06 -2e-06
                          CHANNELS 3 Zrotation Yrotation Xrotation
                          JOINT RightHandMiddleEnd
                          {
                            OFFSET -2.30252 -0.29437 -0.031706
                            CHANNELS 3 Zrotation Yrotation Xrotation
                          }
                        }
                      }
                    }
                  }
                  JOINT RightHandRing1
                  {
                    OFFSET -2.88569 -0.067952 -0.308858
                    CHANNELS 3 Zrotation Yrotation Xrotation
                    JOINT RightHandRing2
                    {
                      OFFSET -5.854198 -0.48613 -1.373731
                      CHANNELS 3 Zrotation Yrotation Xrotation
                      JOINT RightHandRing3
                      {
                        OFFSET -4.33881 -4e-06 -0.0
                        CHANNELS 3 Zrotation Yrotation Xrotation
                        JOINT RightHandRing4
                        {
                          OFFSET -2.654903 -4e-06 4e-06
                          CHANNELS 3 Zrotation Yrotation Xrotation
                          JOINT RightHandRingEnd
                          {
                            OFFSET -1.933568 0.077527 -5.2e-05
                            CHANNELS 3 Zrotation Yrotation Xrotation
                          }
                        }
                      }
                    }
                  }
                  JOINT RightHandPinky1
                  {
                    OFFSET -2.866425 -0.342796 -1.584145
                    CHANNELS 3 Zrotation Yrotation Xrotation
                    JOINT RightHandPinky2
                    {
                      OFFSET -5.091371 -1.332055 -1.772385
                      CHANNELS 3 Zrotation Yrotation Xrotation
                      JOINT RightHandPinky3
                      {
                        OFFSET -3.062664 -4e-06 1e-06
                        CHANNELS 3 Zrotation Yrotation Xrotation
                        JOINT RightHandPinky4
                        {
                          OFFSET -1.546529 4e-06 -2e-06
                          CHANNELS 3 Zrotation Yrotation Xrotation
                          JOINT RightHandPinkyEnd
                          {
                            OFFSET -1.945119 -0.157718 0.057211
                            CHANNELS 3 Zrotation Yrotation Xrotation
                          }
                        }
                      }
                    }
                  }
                }
              }
            }
          }
        }
      }
    }
    JOINT LeftLeg
    {
      OFFSET 10.043214 -8.434526 2.595655
      CHANNELS 3 Zrotation Yrotation Xrotation
      JOINT LeftShin
      {
        OFFSET -1e-06 -43.221752 -0.802913
        CHANNELS 3 Zrotation Yrotation Xrotation
        JOINT LeftFoot
        {
          OFFSET 1e-06 -42.155094 -3.481523
          CHANNELS 3 Zrotation Yrotation Xrotation
          JOINT LeftToeBase
          {
            OFFSET 0.0 -5.059472 13.231529
            CHANNELS 3 Zrotation Yrotation Xrotation
            JOINT LeftToeEnd
            {
              OFFSET -0.009607 -1.647619 6.513017
              CHANNELS 3 Zrotation Yrotation Xrotation
            }
          }
        }
      }
    }
    JOINT RightLeg
    {
      OFFSET -10.047278 -8.29526 2.620317
      CHANNELS 3 Zrotation Yrotation Xrotation
      JOINT RightShin
      {
        OFFSET 1e-06 -43.362206 -0.805556
        CHANNELS 3 Zrotation Yrotation Xrotation
        JOINT RightFoot
        {
          OFFSET 2e-06 -42.117393 -3.478398
          CHANNELS 3 Zrotation Yrotation Xrotation
          JOINT RightToeBase
          {
            OFFSET -0.0 -5.079609 13.284196
            CHANNELS 3 Zrotation Yrotation Xrotation
            JOINT RightToeEnd
            {
              OFFSET 0.009532 -1.634378 6.460591
              CHANNELS 3 Zrotation Yrotation Xrotation
            }
          }
        }
      }
    }
  }
}
MOTION
Frames: 4
Frame Time: 0.03333333333333333
-1.503485 0.0 -0.80821 0.0 -0.460832 0.0 0.0 100.337044 0.0 -0.443745 0.002688 0.346335 0.846583 0.178191 -4.707521 -0.250837 0.059652 -6.413784 -1.260083 -1.217266 13.328069 -3.281858 3.497424 1.770455 0.136164 1.692514 -3.626135 -2.499105 2.237542 -2.660758 0.002017 0.000165 0.004072 0.016808 -0.025396 -0.065057 0.774658 -3.784564 -10.634646 -0.750584 3.732098 -10.583275 -21.208902 -2.864268 12.975315 -54.779076 -1.267964 13.442058 0.761284 -48.799259 -0.371343 10.568279 4.379861 -12.20063 -5.902889 9.811408 0.814351 -10.918474 -0.339841 7.207798 0.002372 8.78585 0.001121 -16.012651 18.452431 6.218016 -1.846758 2.503383 -2.51719 -10.174212 4.660932 4.624794 -21.005146 0.009511 0.003968 -21.294086 2.449509 -3.593149 0.008981 0.002173 0.003107 -1.370976 2.243796 -0.749304 -21.364201 0.567321 3.003725 -13.85288 -0.001948 0.006227 -23.942318 -0.232503 -0.854179 -59.959854 2.619258 -1.143484 -0.296363 1.68957 0.82238 -14.22859 0.061981 1.301279 -34.222282 -0.27491 0.97051 -20.02066 0.956223 1.20528 -0.009895 -0.006685 -0.001869 -3.468008 0.79574 0.489708 -15.93389 -3.191913 3.001742 -6.347924 -0.002155 0.00317 -18.186392 3.648206 -4.929799 -0.001893 -0.005037 -0.011399 14.366316 6.577115 12.583212 61.499107 14.72757 41.430183 0.428041 17.930933 0.121493 3.545896 -4.512778 -14.432799 2.238825 -5.189016 -3.073852 14.291283 -0.843691 6.966938 0.000435 -12.700629 -0.003769 15.92452 -17.558916 2.655803 1.664998 -1.959313 -2.911188 4.728838 -4.178959 5.012194 11.022048 -0.003417 0.007999 12.11955 -3.734951 -2.884863 0.005837 0.006141 -0.012901 1.291293 -1.944123 -1.5124 14.801034 0.583846 3.864278 14.257428 -1.351153 -6.661619 19.660563 0.155171 -0.667844 49.879463 -0.369579 -6.044912 0.349121 -1.529516 -0.057643 20.226307 3.697119 2.344612 18.775787 -0.007068 -0.012731 10.75779 -0.479822 1.399042 -0.00896 -4.1e-05 0.005248 3.276675 0.277957 -0.621211 21.492601 11.870485 2.30811 8.172465 0.001514 -0.00642 18.398684 -3.814554 -4.951916 -0.005851 0.001598 0.001377 3.387709 17.140469 -1.742783 -0.129342 -0.288834 7.375967 -5.931765 -0.669897 -5.378277 1.63695 -1.831966 -0.442576 -0.001688 0.000718 0.000436 -4.011472 -5.197736 -0.229493 0.011876 0.133945 2.500462 7.342767 -2.001206 -2.468554 -1.418478 1.078683 -1.239303 -0.000638 -0.002965 0.005712 
-1.539718 0.0 -0.859011 0.0 -0.420984 0.0 0.0 100.377548 0.0 -0.414614 0.002875 0.397183 0.837719 0.172957 -4.723327 -0.242892 0.154788 -6.419233 -1.381934 -1.134467 13.388518 -3.794269 3.71516 1.76282 0.105554 1.779228 -3.623001 -2.70459 2.453938 -2.702341 -0.001663 0.0002 0.001525 0.016381 -0.009618 -0.058158 0.774895 -3.771353 -10.644835 -0.745168 3.754243 -10.594022 -21.466442 -2.758578 12.797878 -54.23336 -1.147581 13.52173 0.916746 -50.463692 -0.56648 10.515462 4.566185 -12.169983 -5.85922 9.831589 0.766919 -10.944061 -0.357192 7.182169 0.006332 8.77374 -0.003551 -16.042505 18.401642 6.201187 -1.843737 2.496867 -2.508178 -10.162676 4.664799 4.608615 -20.980074 0.00155 -0.005992 -21.243631 2.445871 -3.600531 0.002254 -0.001438 0.010411 -1.359022 2.228456 -0.743445 -21.340696 0.600649 3.005506 -13.820335 0.003636 -0.003074 -23.88685 -0.233395 -0.84246 -60.01313 2.619148 -1.150068 -0.289638 1.655133 0.839501 -14.221306 0.111087 1.300995 -34.192719 -0.278613 0.956284 -20.033617 0.9491 1.20514 -0.004814 -0.004904 -0.005012 -3.446122 0.778087 0.494804 -15.932421 -3.160774 2.996276 -6.338515 -0.003258 -0.002504 -18.145586 3.629335 -4.898726 -0.002578 0.004894 0.000867 14.226548 6.623518 12.518268 61.678001 14.692377 41.371494 0.324967 17.70575 0.083888 3.535203 -4.381155 -14.335353 2.249427 -5.239764 -3.204217 14.295725 -0.826397 6.931584 -0.002191 -12.699654 -0.005786 15.963963 -17.579117 2.669989 1.663222 -1.957885 -2.886018 4.72925 -4.172322 4.9891 11.025804 -0.002466 0.020643 12.097312 -3.735183 -2.87673 -0.000992 0.004567 0.019196 1.287329 -1.935476 -1.499925 14.806904 0.570258 3.870789 14.257778 -1.34123 -6.663263 19.667747 0.127857 -0.629432 49.933624 -0.341625 -6.081686 0.350025 -1.522743 -0.050631 20.237553 3.691092 2.346353 18.795994 0.007566 0.011119 10.769979 -0.477903 1.3941 0.011216 0.002393 -0.00157 3.27349 0.304982 -0.577761 21.502207 11.830463 2.278976 8.168816 0.007623 -0.015234 18.407764 -3.805201 -4.914569 -0.009482 0.006848 -0.00683 3.363904 17.116112 -1.486574 -0.1302 -0.291048 6.670736 -5.913261 -0.654724 -5.076244 1.631926 -1.839759 -0.544503 -0.000322 0.004002 0.000276 -4.015183 -5.362028 -0.100495 0.000859 0.109293 2.16817 7.334303 -1.920318 -2.378013 -1.415298 1.062212 -1.390303 0.000946 0.000229 0.001304 
-1.561526 0.0 -0.900276 0.0 -0.292836 0.0 0.0 100.397171 0.0 -0.388435 0.002954 0.436047 0.833196 0.174701 -4.741505 -0.244522 0.229294 -6.43932 -1.533427 -1.036026 13.477309 -4.489357 4.017944 1.754355 0.113268 1.923832 -3.621603 -2.939161 2.776534 -2.760365 -0.001996 -0.00109 -0.000536 0.016099 -0.01269 -0.054847 0.767687 -3.773933 -10.653336 -0.737766 3.749525 -10.605556 -21.789614 -2.588904 12.650769 -53.639629 -1.187638 13.612809 1.111498 -52.314087 -0.792174 10.458879 4.872793 -12.175107 -5.845528 9.902407 0.691197 -10.963081 -0.385649 7.11909 -0.00341 8.767848 0.011042 -16.070173 18.358665 6.161086 -1.837033 2.494339 -2.494684 -10.141579 4.676826 4.627134 -20.935268 -0.009609 0.006199 -21.183243 2.436297 -3.581417 0.001663 0.003755 3.9e-05 -1.349895 2.211153 -0.728307 -21.299213 0.603788 2.99945 -13.789176 0.003233 -0.007495 -23.807112 -0.245646 -0.821551 -59.750801 2.675077 -1.038258 -0.272068 1.653271 0.844932 -14.205503 0.104797 1.310102 -34.143459 -0.27728 0.970651 -19.994135 0.979184 1.220044 -0.001145 0.003841 -0.008398 -3.40051 0.754596 0.51244 -15.92531 -3.13735 2.993466 -6.332369 -0.008743 0.008132 -18.06044 3.648666 -4.900543 -0.002602 -0.000124 0.000156 14.056255 6.70587 12.277172 61.806068 14.702674 41.433479 0.222896 17.524351 0.075385 3.534119 -4.25104 -14.525736 2.238853 -5.270993 -3.181903 14.276305 -0.822714 6.912546 -0.014572 -12.678243 0.00091 15.954028 -17.575073 2.700488 1.664251 -1.948801 -2.855367 4.723198 -4.162082 5.002025 11.009659 0.009791 -0.006365 12.074939 -3.714264 -2.831992 0.00455 -0.005307 0.005589 1.284291 -1.915561 -1.48743 14.80554 0.566952 3.869834 14.242088 -1.33203 -6.647244 19.639141 0.150238 -0.632894 49.892643 -0.276075 -6.060855 0.341146 -1.491566 -0.010248 20.231485 3.682277 2.304419 18.763798 0.00394 0.022074 10.757477 -0.474763 1.380329 0.007812 0.00739 0.002186 3.2614 0.332842 -0.555996 21.507099 11.809673 2.278922 8.160835 0.002308 -0.016836 18.403578 -3.759447 -4.941792 -0.004627 -0.004474 0.006217 3.338516 17.10873 -1.412988 -0.137491 -0.272073 6.348598 -5.917299 -0.75438 -4.671551 1.63199 -1.860512 -0.591842 0.000934 0.000144 -0.00243 -4.033781 -5.556118 -0.070037 -0.003249 0.094039 2.052911 7.308211 -1.838768 -2.172312 -1.407743 1.058392 -1.443887 0.000588 -0.002907 -0.001953 
-1.57276 0.0 -0.927636 0.0 -0.161486 0.0 0.0 100.393059 0.0 -0.366466 0.002889 0.452015 0.841147 0.19278 -4.74489 -0.24547 0.314666 -6.452567 -1.726755 -0.940892 13.567549 -5.37042 4.409214 1.807232 0.135887 2.130914 -3.63767 -3.264881 3.145761 -2.837802 7.6e-05 -2.2e-05 -0.0 0.022966 -0.016612 -0.048573 0.768224 -3.779454 -10.659984 -0.724832 3.752856 -10.61288 -22.001019 -2.556967 12.490232 -53.207699 -1.357494 13.739702 1.182305 -54.516388 -0.915207 10.533504 5.315839 -12.197602 -5.864268 9.861904 0.662151 -10.935053 -0.403197 7.126562 0.002849 8.754646 0.009673 -16.156466 18.268394 6.144663 -1.847385 2.508507 -2.51267 -10.173167 4.660448 4.621399 -21.011509 -0.005231 -0.010839 -21.282343 2.414289 -3.607281 -0.009268 0.009841 -0.00566 -1.362852 2.218643 -0.750231 -21.349762 0.603963 3.005929 -13.814935 0.008478 -0.012882 -23.859089 -0.274138 -0.832795 -59.867886 2.651237 -1.003493 -0.290823 1.67306 0.828437 -14.22304 0.111685 1.298022 -34.246998 -0.29747 0.996671 -20.054365 0.981824 1.19409 -0.006327 -0.012653 0.008807 -3.453828 0.78417 0.489823 -15.925479 -3.146687 3.007642 -6.338947 -0.004833 -0.002926 -18.13142 3.650283 -4.927151 0.003687 0.00153 0.003018 13.758759 6.889788 12.268497 62.066803 14.665438 41.763733 0.166581 17.423035 0.073314 3.480747 -4.120673 -14.722852 2.23458 -5.26847 -3.247756 14.299045 -0.816122 6.92747 0.005743 -12.687039 -0.019056 15.958469 -17.608143 2.707467 1.664977 -1.958242 -2.886136 4.731649 -4.171371 4.996169 11.01582 -0.006579 -0.004398 12.117283 -3.745518 -2.861023 0.002755 0.000463 0.008404 1.291457 -1.930916 -1.496593 14.805519 0.568468 3.87986 14.241305 -1.336022 -6.670471 19.633266 0.122143 -0.640203 49.941765 -0.30351 -6.140472 0.35608 -1.512384 -0.020024 20.218819 3.690291 2.306972 18.797577 -0.003086 0.004644 10.759295 -0.472214 1.384269 -0.007505 -0.003619 -0.011603 3.282779 0.297649 -0.588883 21.472641 11.837187 2.287751 8.172117 0.001665 -0.004358 18.385147 -3.805228 -4.937793 -0.000669 0.004586 -0.007285 3.319191 17.154942 -1.520898 -0.145345 -0.277157 6.458733 -6.027045 -0.968378 -4.771202 1.630372 -1.85736 -0.610684 0.000585 -0.000492 0.000821 -4.067904 -5.740778 -0.126897 -0.001927 0.08227 2.146987 7.370485 -1.758571 -2.308931 -1.403475 1.056878 -1.443677 -0.000214 -0.004325 0.001115 
